<mxfile host="Electron" modified="2023-04-17T22:37:20.077Z" agent="Mozilla/5.0 (Windows NT 10.0; Win64; x64) AppleWebKit/537.36 (KHTML, like Gecko) draw.io/21.1.2 Chrome/106.0.5249.199 Electron/21.4.3 Safari/537.36" etag="swDMogyMqUTCo-krgzI3" version="21.1.2" type="device">
  <diagram name="Diagrama" id="1sVRHOzEYZrXOeaPdtRI">
    <mxGraphModel dx="864" dy="508" grid="1" gridSize="10" guides="1" tooltips="1" connect="1" arrows="1" fold="1" page="1" pageScale="1" pageWidth="827" pageHeight="1169" math="0" shadow="0">
      <root>
        <mxCell id="0" />
        <mxCell id="1" parent="0" />
        <mxCell id="nPUZN06k5ynfG-UT0weC-89" style="edgeStyle=orthogonalEdgeStyle;rounded=0;orthogonalLoop=1;jettySize=auto;html=1;exitX=0.25;exitY=1;exitDx=0;exitDy=0;exitPerimeter=0;entryX=0;entryY=0.128;entryDx=0;entryDy=0;entryPerimeter=0;fontStyle=1" parent="1" source="nPUZN06k5ynfG-UT0weC-2" target="nPUZN06k5ynfG-UT0weC-13" edge="1">
          <mxGeometry relative="1" as="geometry">
            <Array as="points">
              <mxPoint x="130" y="90" />
              <mxPoint x="130" y="130" />
            </Array>
          </mxGeometry>
        </mxCell>
        <mxCell id="qIjgY6B9hTXqaseeDqK2-3" style="edgeStyle=orthogonalEdgeStyle;rounded=0;orthogonalLoop=1;jettySize=auto;html=1;" edge="1" parent="1" source="nPUZN06k5ynfG-UT0weC-2" target="nPUZN06k5ynfG-UT0weC-20">
          <mxGeometry relative="1" as="geometry" />
        </mxCell>
        <mxCell id="nPUZN06k5ynfG-UT0weC-2" value="models" style="shape=folder;fontStyle=1;spacingTop=10;tabWidth=40;tabHeight=14;tabPosition=left;html=1;" parent="1" vertex="1">
          <mxGeometry x="105" y="40" width="125" height="50" as="geometry" />
        </mxCell>
        <mxCell id="nPUZN06k5ynfG-UT0weC-13" value="ModelsRestaurante" style="swimlane;fontStyle=1;childLayout=stackLayout;horizontal=1;startSize=26;fillColor=none;horizontalStack=0;resizeParent=1;resizeParentMax=0;resizeLast=0;collapsible=1;marginBottom=0;" parent="1" vertex="1">
          <mxGeometry x="150" y="110" width="210" height="156" as="geometry" />
        </mxCell>
        <mxCell id="nPUZN06k5ynfG-UT0weC-14" value="private String nomeRestaurante" style="text;strokeColor=none;fillColor=none;align=left;verticalAlign=top;spacingLeft=4;spacingRight=4;overflow=hidden;rotatable=0;points=[[0,0.5],[1,0.5]];portConstraint=eastwest;fontStyle=1" parent="nPUZN06k5ynfG-UT0weC-13" vertex="1">
          <mxGeometry y="26" width="210" height="26" as="geometry" />
        </mxCell>
        <mxCell id="nPUZN06k5ynfG-UT0weC-80" value="private String cnpj" style="text;strokeColor=none;fillColor=none;align=left;verticalAlign=top;spacingLeft=4;spacingRight=4;overflow=hidden;rotatable=0;points=[[0,0.5],[1,0.5]];portConstraint=eastwest;fontStyle=1" parent="nPUZN06k5ynfG-UT0weC-13" vertex="1">
          <mxGeometry y="52" width="210" height="26" as="geometry" />
        </mxCell>
        <mxCell id="nPUZN06k5ynfG-UT0weC-16" value="private String donoRestarante" style="text;strokeColor=none;fillColor=none;align=left;verticalAlign=top;spacingLeft=4;spacingRight=4;overflow=hidden;rotatable=0;points=[[0,0.5],[1,0.5]];portConstraint=eastwest;fontStyle=1" parent="nPUZN06k5ynfG-UT0weC-13" vertex="1">
          <mxGeometry y="78" width="210" height="26" as="geometry" />
        </mxCell>
        <mxCell id="nPUZN06k5ynfG-UT0weC-17" value="private LocalDate inauguracao" style="text;strokeColor=none;fillColor=none;align=left;verticalAlign=top;spacingLeft=4;spacingRight=4;overflow=hidden;rotatable=0;points=[[0,0.5],[1,0.5]];portConstraint=eastwest;fontStyle=1" parent="nPUZN06k5ynfG-UT0weC-13" vertex="1">
          <mxGeometry y="104" width="210" height="26" as="geometry" />
        </mxCell>
        <mxCell id="nPUZN06k5ynfG-UT0weC-18" value="private String breveDescricao" style="text;strokeColor=none;fillColor=none;align=left;verticalAlign=top;spacingLeft=4;spacingRight=4;overflow=hidden;rotatable=0;points=[[0,0.5],[1,0.5]];portConstraint=eastwest;fontStyle=1" parent="nPUZN06k5ynfG-UT0weC-13" vertex="1">
          <mxGeometry y="130" width="210" height="26" as="geometry" />
        </mxCell>
        <mxCell id="nPUZN06k5ynfG-UT0weC-20" value="ModelsFuncionario" style="swimlane;fontStyle=1;childLayout=stackLayout;horizontal=1;startSize=26;fillColor=none;horizontalStack=0;resizeParent=1;resizeParentMax=0;resizeLast=0;collapsible=1;marginBottom=0;" parent="1" vertex="1">
          <mxGeometry x="450" y="108" width="230" height="158" as="geometry" />
        </mxCell>
        <mxCell id="nPUZN06k5ynfG-UT0weC-21" value="private String nomeRestaurante" style="text;strokeColor=none;fillColor=none;align=left;verticalAlign=top;spacingLeft=4;spacingRight=4;overflow=hidden;rotatable=0;points=[[0,0.5],[1,0.5]];portConstraint=eastwest;fontStyle=1" parent="nPUZN06k5ynfG-UT0weC-20" vertex="1">
          <mxGeometry y="26" width="230" height="26" as="geometry" />
        </mxCell>
        <mxCell id="nPUZN06k5ynfG-UT0weC-22" value="private String nomeFuncionario" style="text;strokeColor=none;fillColor=none;align=left;verticalAlign=top;spacingLeft=4;spacingRight=4;overflow=hidden;rotatable=0;points=[[0,0.5],[1,0.5]];portConstraint=eastwest;fontStyle=1" parent="nPUZN06k5ynfG-UT0weC-20" vertex="1">
          <mxGeometry y="52" width="230" height="28" as="geometry" />
        </mxCell>
        <mxCell id="nPUZN06k5ynfG-UT0weC-24" value="private Integer cpf" style="text;strokeColor=none;fillColor=none;align=left;verticalAlign=top;spacingLeft=4;spacingRight=4;overflow=hidden;rotatable=0;points=[[0,0.5],[1,0.5]];portConstraint=eastwest;fontStyle=1" parent="nPUZN06k5ynfG-UT0weC-20" vertex="1">
          <mxGeometry y="80" width="230" height="26" as="geometry" />
        </mxCell>
        <mxCell id="nPUZN06k5ynfG-UT0weC-23" value="private BigDecimal salario" style="text;strokeColor=none;fillColor=none;align=left;verticalAlign=top;spacingLeft=4;spacingRight=4;overflow=hidden;rotatable=0;points=[[0,0.5],[1,0.5]];portConstraint=eastwest;fontStyle=1" parent="nPUZN06k5ynfG-UT0weC-20" vertex="1">
          <mxGeometry y="106" width="230" height="26" as="geometry" />
        </mxCell>
        <mxCell id="nPUZN06k5ynfG-UT0weC-94" value="private LocalDate admissao" style="text;strokeColor=none;fillColor=none;align=left;verticalAlign=top;spacingLeft=4;spacingRight=4;overflow=hidden;rotatable=0;points=[[0,0.5],[1,0.5]];portConstraint=eastwest;fontStyle=1" parent="nPUZN06k5ynfG-UT0weC-20" vertex="1">
          <mxGeometry y="132" width="230" height="26" as="geometry" />
        </mxCell>
        <mxCell id="nPUZN06k5ynfG-UT0weC-33" value="ControllerRestaurante" style="swimlane;fontStyle=1;align=center;verticalAlign=top;childLayout=stackLayout;horizontal=1;startSize=26;horizontalStack=0;resizeParent=1;resizeParentMax=0;resizeLast=0;collapsible=1;marginBottom=0;" parent="1" vertex="1">
          <mxGeometry x="110" y="340" width="300" height="178" as="geometry" />
        </mxCell>
        <mxCell id="nPUZN06k5ynfG-UT0weC-36" value="+ ListarTodosRestaurantes (): ResponseEntity" style="text;strokeColor=none;fillColor=none;align=left;verticalAlign=top;spacingLeft=4;spacingRight=4;overflow=hidden;rotatable=0;points=[[0,0.5],[1,0.5]];portConstraint=eastwest;fontStyle=1" parent="nPUZN06k5ynfG-UT0weC-33" vertex="1">
          <mxGeometry y="26" width="300" height="24" as="geometry" />
        </mxCell>
        <mxCell id="nPUZN06k5ynfG-UT0weC-42" value="+ NovoRestaurante(Restaurante): ResponseEntity" style="text;strokeColor=none;fillColor=none;align=left;verticalAlign=top;spacingLeft=4;spacingRight=4;overflow=hidden;rotatable=0;points=[[0,0.5],[1,0.5]];portConstraint=eastwest;fontStyle=1" parent="nPUZN06k5ynfG-UT0weC-33" vertex="1">
          <mxGeometry y="50" width="300" height="34" as="geometry" />
        </mxCell>
        <mxCell id="nPUZN06k5ynfG-UT0weC-39" value="+ListarRestarante(cnpj): ResponseEntity&#xa; " style="text;strokeColor=none;fillColor=none;align=left;verticalAlign=top;spacingLeft=4;spacingRight=4;overflow=hidden;rotatable=0;points=[[0,0.5],[1,0.5]];portConstraint=eastwest;fontStyle=1" parent="nPUZN06k5ynfG-UT0weC-33" vertex="1">
          <mxGeometry y="84" width="300" height="34" as="geometry" />
        </mxCell>
        <mxCell id="nPUZN06k5ynfG-UT0weC-40" value="+ DeletarRestarante(cnpj): ResponseEntity&#xa; " style="text;strokeColor=none;fillColor=none;align=left;verticalAlign=top;spacingLeft=4;spacingRight=4;overflow=hidden;rotatable=0;points=[[0,0.5],[1,0.5]];portConstraint=eastwest;fontStyle=1" parent="nPUZN06k5ynfG-UT0weC-33" vertex="1">
          <mxGeometry y="118" width="300" height="26" as="geometry" />
        </mxCell>
        <mxCell id="nPUZN06k5ynfG-UT0weC-41" value="+AlterarRestarante(cnpj): ResponseEntity" style="text;strokeColor=none;fillColor=none;align=left;verticalAlign=top;spacingLeft=4;spacingRight=4;overflow=hidden;rotatable=0;points=[[0,0.5],[1,0.5]];portConstraint=eastwest;fontStyle=1" parent="nPUZN06k5ynfG-UT0weC-33" vertex="1">
          <mxGeometry y="144" width="300" height="34" as="geometry" />
        </mxCell>
        <mxCell id="nPUZN06k5ynfG-UT0weC-43" value="ControllerFuncionario" style="swimlane;fontStyle=1;align=center;verticalAlign=top;childLayout=stackLayout;horizontal=1;startSize=26;horizontalStack=0;resizeParent=1;resizeParentMax=0;resizeLast=0;collapsible=1;marginBottom=0;" parent="1" vertex="1">
          <mxGeometry x="510" y="389" width="300" height="196" as="geometry" />
        </mxCell>
        <mxCell id="nPUZN06k5ynfG-UT0weC-44" value="+ListarTodosFuncionario(): ResponseEntity&#xa; " style="text;strokeColor=none;fillColor=none;align=left;verticalAlign=top;spacingLeft=4;spacingRight=4;overflow=hidden;rotatable=0;points=[[0,0.5],[1,0.5]];portConstraint=eastwest;fontStyle=1" parent="nPUZN06k5ynfG-UT0weC-43" vertex="1">
          <mxGeometry y="26" width="300" height="34" as="geometry" />
        </mxCell>
        <mxCell id="nPUZN06k5ynfG-UT0weC-48" value="+NovoFuncionario (Funcionario): ResponseEntity&#xa; " style="text;strokeColor=none;fillColor=none;align=left;verticalAlign=top;spacingLeft=4;spacingRight=4;overflow=hidden;rotatable=0;points=[[0,0.5],[1,0.5]];portConstraint=eastwest;fontStyle=1" parent="nPUZN06k5ynfG-UT0weC-43" vertex="1">
          <mxGeometry y="60" width="300" height="34" as="geometry" />
        </mxCell>
        <mxCell id="nPUZN06k5ynfG-UT0weC-45" value="+ListarFuncionario(cpf): ResponseEntity&#xa; " style="text;strokeColor=none;fillColor=none;align=left;verticalAlign=top;spacingLeft=4;spacingRight=4;overflow=hidden;rotatable=0;points=[[0,0.5],[1,0.5]];portConstraint=eastwest;fontStyle=1" parent="nPUZN06k5ynfG-UT0weC-43" vertex="1">
          <mxGeometry y="94" width="300" height="34" as="geometry" />
        </mxCell>
        <mxCell id="nPUZN06k5ynfG-UT0weC-46" value="+DeletarFuncionario(cpf): ResponseEntity&#xa; " style="text;strokeColor=none;fillColor=none;align=left;verticalAlign=top;spacingLeft=4;spacingRight=4;overflow=hidden;rotatable=0;points=[[0,0.5],[1,0.5]];portConstraint=eastwest;fontStyle=1" parent="nPUZN06k5ynfG-UT0weC-43" vertex="1">
          <mxGeometry y="128" width="300" height="34" as="geometry" />
        </mxCell>
        <mxCell id="nPUZN06k5ynfG-UT0weC-47" value="+AlterarFuncionario(cpf): ResponseEntity&#xa; " style="text;strokeColor=none;fillColor=none;align=left;verticalAlign=top;spacingLeft=4;spacingRight=4;overflow=hidden;rotatable=0;points=[[0,0.5],[1,0.5]];portConstraint=eastwest;fontStyle=1" parent="nPUZN06k5ynfG-UT0weC-43" vertex="1">
          <mxGeometry y="162" width="300" height="34" as="geometry" />
        </mxCell>
        <mxCell id="nPUZN06k5ynfG-UT0weC-50" value="ServiceRestaurante" style="swimlane;fontStyle=1;align=center;verticalAlign=top;childLayout=stackLayout;horizontal=1;startSize=26;horizontalStack=0;resizeParent=1;resizeParentMax=0;resizeLast=0;collapsible=1;marginBottom=0;" parent="1" vertex="1">
          <mxGeometry x="160" y="640" width="390" height="170" as="geometry">
            <mxRectangle x="180" y="640" width="150" height="30" as="alternateBounds" />
          </mxGeometry>
        </mxCell>
        <mxCell id="nPUZN06k5ynfG-UT0weC-51" value="+ListarRestaurantes(List&lt;Restarantes&gt;): List&lt;Restaurantes&gt;&#xa; " style="text;strokeColor=none;fillColor=none;align=left;verticalAlign=top;spacingLeft=4;spacingRight=4;overflow=hidden;rotatable=0;points=[[0,0.5],[1,0.5]];portConstraint=eastwest;fontStyle=1" parent="nPUZN06k5ynfG-UT0weC-50" vertex="1">
          <mxGeometry y="26" width="390" height="24" as="geometry" />
        </mxCell>
        <mxCell id="nPUZN06k5ynfG-UT0weC-83" value="+BuscarCnpjRestarante(cnpj): Restaurante" style="text;strokeColor=none;fillColor=none;align=left;verticalAlign=top;spacingLeft=4;spacingRight=4;overflow=hidden;rotatable=0;points=[[0,0.5],[1,0.5]];portConstraint=eastwest;fontStyle=1" parent="nPUZN06k5ynfG-UT0weC-50" vertex="1">
          <mxGeometry y="50" width="390" height="30" as="geometry" />
        </mxCell>
        <mxCell id="nPUZN06k5ynfG-UT0weC-55" value="+NovoRestaurantes (Restaurantes): void" style="text;strokeColor=none;fillColor=none;align=left;verticalAlign=top;spacingLeft=4;spacingRight=4;overflow=hidden;rotatable=0;points=[[0,0.5],[1,0.5]];portConstraint=eastwest;fontStyle=1" parent="nPUZN06k5ynfG-UT0weC-50" vertex="1">
          <mxGeometry y="80" width="390" height="30" as="geometry" />
        </mxCell>
        <mxCell id="nPUZN06k5ynfG-UT0weC-53" value="+DeletarRestarante (cnpj): void" style="text;strokeColor=none;fillColor=none;align=left;verticalAlign=top;spacingLeft=4;spacingRight=4;overflow=hidden;rotatable=0;points=[[0,0.5],[1,0.5]];portConstraint=eastwest;fontStyle=1" parent="nPUZN06k5ynfG-UT0weC-50" vertex="1">
          <mxGeometry y="110" width="390" height="30" as="geometry" />
        </mxCell>
        <mxCell id="nPUZN06k5ynfG-UT0weC-54" value="+AlterarRestarante (cnpj): void" style="text;strokeColor=none;fillColor=none;align=left;verticalAlign=top;spacingLeft=4;spacingRight=4;overflow=hidden;rotatable=0;points=[[0,0.5],[1,0.5]];portConstraint=eastwest;fontStyle=1" parent="nPUZN06k5ynfG-UT0weC-50" vertex="1">
          <mxGeometry y="140" width="390" height="30" as="geometry" />
        </mxCell>
        <mxCell id="nPUZN06k5ynfG-UT0weC-58" value="ServiceFuncionario" style="swimlane;fontStyle=1;align=center;verticalAlign=top;childLayout=stackLayout;horizontal=1;startSize=26;horizontalStack=0;resizeParent=1;resizeParentMax=0;resizeLast=0;collapsible=1;marginBottom=0;labelBackgroundColor=default;" parent="1" vertex="1">
          <mxGeometry x="160" y="870" width="390" height="170" as="geometry" />
        </mxCell>
        <mxCell id="nPUZN06k5ynfG-UT0weC-59" value="+ListarFuncionarios(List&lt;Funcionarios&gt;): Funcionarios" style="text;strokeColor=none;fillColor=none;align=left;verticalAlign=top;spacingLeft=4;spacingRight=4;overflow=hidden;rotatable=0;points=[[0,0.5],[1,0.5]];portConstraint=eastwest;fontStyle=1" parent="nPUZN06k5ynfG-UT0weC-58" vertex="1">
          <mxGeometry y="26" width="390" height="24" as="geometry" />
        </mxCell>
        <mxCell id="nPUZN06k5ynfG-UT0weC-60" value="+BuscarCpfFuncionario (cpf): Funcionario" style="text;strokeColor=none;fillColor=none;align=left;verticalAlign=top;spacingLeft=4;spacingRight=4;overflow=hidden;rotatable=0;points=[[0,0.5],[1,0.5]];portConstraint=eastwest;fontStyle=1" parent="nPUZN06k5ynfG-UT0weC-58" vertex="1">
          <mxGeometry y="50" width="390" height="30" as="geometry" />
        </mxCell>
        <mxCell id="nPUZN06k5ynfG-UT0weC-63" value="+NovoFuncionario(Funcionario): void" style="text;strokeColor=none;fillColor=none;align=left;verticalAlign=top;spacingLeft=4;spacingRight=4;overflow=hidden;rotatable=0;points=[[0,0.5],[1,0.5]];portConstraint=eastwest;fontStyle=1" parent="nPUZN06k5ynfG-UT0weC-58" vertex="1">
          <mxGeometry y="80" width="390" height="30" as="geometry" />
        </mxCell>
        <mxCell id="nPUZN06k5ynfG-UT0weC-61" value="+DeletarFuncionario (cpf): void" style="text;strokeColor=none;fillColor=none;align=left;verticalAlign=top;spacingLeft=4;spacingRight=4;overflow=hidden;rotatable=0;points=[[0,0.5],[1,0.5]];portConstraint=eastwest;fontStyle=1" parent="nPUZN06k5ynfG-UT0weC-58" vertex="1">
          <mxGeometry y="110" width="390" height="30" as="geometry" />
        </mxCell>
        <mxCell id="nPUZN06k5ynfG-UT0weC-62" value="+AlterarFuncionario (cpf): void" style="text;strokeColor=none;fillColor=none;align=left;verticalAlign=top;spacingLeft=4;spacingRight=4;overflow=hidden;rotatable=0;points=[[0,0.5],[1,0.5]];portConstraint=eastwest;fontStyle=1" parent="nPUZN06k5ynfG-UT0weC-58" vertex="1">
          <mxGeometry y="140" width="390" height="30" as="geometry" />
        </mxCell>
        <mxCell id="nPUZN06k5ynfG-UT0weC-93" style="edgeStyle=orthogonalEdgeStyle;rounded=0;orthogonalLoop=1;jettySize=auto;html=1;exitX=0.25;exitY=1;exitDx=0;exitDy=0;exitPerimeter=0;entryX=0;entryY=0.112;entryDx=0;entryDy=0;entryPerimeter=0;fontStyle=1" parent="1" source="nPUZN06k5ynfG-UT0weC-69" target="nPUZN06k5ynfG-UT0weC-33" edge="1">
          <mxGeometry relative="1" as="geometry" />
        </mxCell>
        <mxCell id="nPUZN06k5ynfG-UT0weC-69" value="controllerRestaurante" style="shape=folder;fontStyle=1;spacingTop=10;tabWidth=40;tabHeight=14;tabPosition=left;html=1;" parent="1" vertex="1">
          <mxGeometry x="60" y="270" width="135" height="50" as="geometry" />
        </mxCell>
        <mxCell id="nPUZN06k5ynfG-UT0weC-87" style="edgeStyle=orthogonalEdgeStyle;rounded=0;orthogonalLoop=1;jettySize=auto;html=1;exitX=0.25;exitY=1;exitDx=0;exitDy=0;exitPerimeter=0;entryX=-0.003;entryY=0.071;entryDx=0;entryDy=0;entryPerimeter=0;fontStyle=1" parent="1" source="nPUZN06k5ynfG-UT0weC-77" target="nPUZN06k5ynfG-UT0weC-43" edge="1">
          <mxGeometry relative="1" as="geometry">
            <Array as="points">
              <mxPoint x="490" y="360" />
              <mxPoint x="490" y="403" />
            </Array>
          </mxGeometry>
        </mxCell>
        <mxCell id="nPUZN06k5ynfG-UT0weC-77" value="controllerFuncionario" style="shape=folder;fontStyle=1;spacingTop=10;tabWidth=40;tabHeight=14;tabPosition=left;html=1;" parent="1" vertex="1">
          <mxGeometry x="470" y="310" width="136" height="50" as="geometry" />
        </mxCell>
        <mxCell id="nPUZN06k5ynfG-UT0weC-82" style="edgeStyle=orthogonalEdgeStyle;rounded=0;orthogonalLoop=1;jettySize=auto;html=1;exitX=0.25;exitY=1;exitDx=0;exitDy=0;exitPerimeter=0;entryX=0.004;entryY=0.071;entryDx=0;entryDy=0;entryPerimeter=0;fontStyle=1" parent="1" source="nPUZN06k5ynfG-UT0weC-71" target="nPUZN06k5ynfG-UT0weC-58" edge="1">
          <mxGeometry relative="1" as="geometry">
            <Array as="points">
              <mxPoint x="133" y="882" />
            </Array>
          </mxGeometry>
        </mxCell>
        <mxCell id="nPUZN06k5ynfG-UT0weC-85" style="edgeStyle=orthogonalEdgeStyle;rounded=0;orthogonalLoop=1;jettySize=auto;html=1;exitX=0.25;exitY=1;exitDx=0;exitDy=0;exitPerimeter=0;entryX=0;entryY=0.07;entryDx=0;entryDy=0;entryPerimeter=0;fontStyle=1" parent="1" source="nPUZN06k5ynfG-UT0weC-71" target="nPUZN06k5ynfG-UT0weC-50" edge="1">
          <mxGeometry relative="1" as="geometry" />
        </mxCell>
        <mxCell id="nPUZN06k5ynfG-UT0weC-71" value="service" style="shape=folder;fontStyle=1;spacingTop=10;tabWidth=40;tabHeight=14;tabPosition=left;html=1;" parent="1" vertex="1">
          <mxGeometry x="92.5" y="560" width="160" height="50" as="geometry" />
        </mxCell>
        <mxCell id="CNcG1uUMJZF6uqOMmjdt-1" value="" style="edgeStyle=entityRelationEdgeStyle;fontSize=12;html=1;endArrow=ERmany;rounded=0;entryX=0;entryY=0.5;entryDx=0;entryDy=0;exitX=1;exitY=0.5;exitDx=0;exitDy=0;" parent="1" source="nPUZN06k5ynfG-UT0weC-80" target="nPUZN06k5ynfG-UT0weC-24" edge="1">
          <mxGeometry width="100" height="100" relative="1" as="geometry">
            <mxPoint x="360" y="320" as="sourcePoint" />
            <mxPoint x="460" y="220" as="targetPoint" />
          </mxGeometry>
        </mxCell>
      </root>
    </mxGraphModel>
  </diagram>
</mxfile>
